<svg xmlns="http://www.w3.org/2000/svg" width="40" height="25.152" viewBox="0 0 40 25.152">
  <g id="ic-cb" transform="translate(-10.4 -25.1)">
    <path id="Tracé_7" data-name="Tracé 7" d="M50.4,37.676V26.868A1.789,1.789,0,0,0,48.633,25.1H12.168A1.789,1.789,0,0,0,10.4,26.868V37.676Z" transform="translate(0 0)" fill="#386fb5"/>
    <path id="Tracé_8" data-name="Tracé 8" d="M10.4,50V60.808a1.789,1.789,0,0,0,1.768,1.768H48.633A1.789,1.789,0,0,0,50.4,60.808V50Z" transform="translate(0 -12.324)" fill="#37829a"/>
    <g id="Groupe_45" data-name="Groupe 45" transform="translate(14.137 30.605)">
      <path id="Tracé_9" data-name="Tracé 9" d="M65.868,42.414H54.1V36H65.817a3.222,3.222,0,0,1,3.232,3.232h0A3.169,3.169,0,0,1,65.868,42.414Z" transform="translate(-35.766 -36)" fill="#fff"/>
      <path id="Tracé_10" data-name="Tracé 10" d="M65.868,56.414H54.1V50H65.817a3.222,3.222,0,0,1,3.232,3.232h0A3.2,3.2,0,0,1,65.868,56.414Z" transform="translate(-35.766 -42.929)" fill="#fff"/>
      <path id="Tracé_11" data-name="Tracé 11" d="M27.093,43.624v-.909h8.384v-.354A6.252,6.252,0,0,0,29.164,36.2h-4.95A6.307,6.307,0,0,0,17.8,42.362v1.667a6.409,6.409,0,0,0,6.414,6.162h4.95a6.3,6.3,0,0,0,6.313-6.212v-.3H27.093Z" transform="translate(-17.8 -36.099)" fill="#fff"/>
    </g>
  </g>
</svg>
