<svg xmlns="http://www.w3.org/2000/svg" width="40" height="27.457" viewBox="0 0 40 27.457">
  <g id="ic-mc" transform="translate(-13.8 -25.2)">
    <g id="master" transform="translate(13.8 25.2)">
      <path id="Tracé_17" data-name="Tracé 17" d="M51.533,52.657H16.065A2.275,2.275,0,0,1,13.8,50.392V27.465A2.275,2.275,0,0,1,16.065,25.2H51.533A2.275,2.275,0,0,1,53.8,27.465V50.337A2.253,2.253,0,0,1,51.533,52.657Z" transform="translate(-13.8 -25.2)" fill="#192169"/>
      <g id="Groupe_52" data-name="Groupe 52" transform="translate(4.972 5.083)">
        <path id="Tracé_18" data-name="Tracé 18" d="M37.827,37.328a8.568,8.568,0,1,0-6.464,14.2A8.774,8.774,0,0,0,37.827,48.6a8.534,8.534,0,0,1-2.155-5.69A8.356,8.356,0,0,1,37.827,37.328Z" transform="translate(-22.8 -34.4)" fill="#ff0016"/>
        <path id="Tracé_19" data-name="Tracé 19" d="M48.255,39.7A8.534,8.534,0,0,0,46.1,45.39a8.642,8.642,0,0,0,2.155,5.69,8.534,8.534,0,0,0,2.155-5.69A8.642,8.642,0,0,0,48.255,39.7Z" transform="translate(-33.228 -36.772)" fill="#ff0016"/>
      </g>
      <path id="Tracé_20" data-name="Tracé 20" d="M54.763,34.5A8.774,8.774,0,0,0,48.3,37.428a7.939,7.939,0,0,0-.994,1.381h1.989a9.559,9.559,0,0,1,.773,1.713h-3.48a15.564,15.564,0,0,0-.387,1.713h4.2a4.466,4.466,0,0,1,.055.884A5.055,5.055,0,0,1,50.4,44H46.2a5.943,5.943,0,0,0,.387,1.713h3.48a6.806,6.806,0,0,1-.773,1.713H47.3a7.939,7.939,0,0,0,.994,1.381A8.6,8.6,0,1,0,54.763,34.5Z" transform="translate(-28.3 -29.362)" fill="#ffa916"/>
    </g>
  </g>
</svg>
