<svg id="visa" xmlns="http://www.w3.org/2000/svg" viewBox="0 0 41 28.1"><defs><style>.cls-1{fill:#f2f2f2;}.cls-2{fill:#253b80;}.cls-3{fill:#179bd7;}</style></defs><title>ico-visa</title><rect class="cls-1" x="0.02" width="40.96" height="28.1" rx="2.28"/><path class="cls-2" d="M9,12.18c-.13.87-.79.87-1.43.87H7.23l.25-1.62a.21.21,0,0,1,.2-.17h.17c.43,0,.84,0,1.05.25A.79.79,0,0,1,9,12.18ZM8.74,9.93H6.34a.33.33,0,0,0-.33.28L5,16.38a.2.2,0,0,0,.2.23H6.38a.33.33,0,0,0,.33-.28L7,14.67a.34.34,0,0,1,.33-.29h.77A2.46,2.46,0,0,0,10.8,12.1a1.86,1.86,0,0,0-.3-1.56A2.24,2.24,0,0,0,8.74,9.93Z"/><path class="cls-2" d="M14.33,14.4A1.28,1.28,0,0,1,13,15.5a1,1,0,0,1-.77-.31,1,1,0,0,1-.18-.81,1.28,1.28,0,0,1,1.29-1.11,1,1,0,0,1,.77.31A1,1,0,0,1,14.33,14.4Zm1.61-2.25H14.78a.2.2,0,0,0-.19.17l-.05.33-.09-.12a1.63,1.63,0,0,0-1.36-.48,2.64,2.64,0,0,0-2.57,2.31A2.18,2.18,0,0,0,11,16.13a1.78,1.78,0,0,0,1.45.59,2.21,2.21,0,0,0,1.6-.66l-.05.32a.2.2,0,0,0,.19.23h1a.33.33,0,0,0,.33-.28l.62-3.94A.2.2,0,0,0,15.94,12.15Z"/><path class="cls-2" d="M22.07,12.15H20.92a.35.35,0,0,0-.28.15L19,14.65l-.68-2.26a.33.33,0,0,0-.32-.24H16.91a.2.2,0,0,0-.19.27L18,16.16l-1.2,1.7a.2.2,0,0,0,.17.31h1.15a.35.35,0,0,0,.28-.14l3.85-5.56A.21.21,0,0,0,22.07,12.15Z"/><path class="cls-3" d="M26.19,12.18c-.14.87-.8.87-1.43.87h-.37l.26-1.62a.2.2,0,0,1,.2-.17H25c.44,0,.85,0,1.06.25A.82.82,0,0,1,26.19,12.18Zm-.28-2.25H23.5a.34.34,0,0,0-.33.28l-1,6.17a.2.2,0,0,0,.2.23h1.23a.23.23,0,0,0,.23-.2l.28-1.74a.33.33,0,0,1,.33-.29h.76A2.47,2.47,0,0,0,28,12.1a1.86,1.86,0,0,0-.31-1.56A2.23,2.23,0,0,0,25.91,9.93Z"/><path class="cls-3" d="M31.49,14.4a1.28,1.28,0,0,1-1.3,1.1,1,1,0,0,1-.77-.31,1,1,0,0,1-.18-.81,1.28,1.28,0,0,1,1.29-1.11,1,1,0,0,1,.77.31A1,1,0,0,1,31.49,14.4Zm1.61-2.25H32a.21.21,0,0,0-.2.17l-.05.33-.08-.12a1.65,1.65,0,0,0-1.36-.48,2.64,2.64,0,0,0-2.57,2.31,2.18,2.18,0,0,0,.42,1.77,1.81,1.81,0,0,0,1.46.59,2.2,2.2,0,0,0,1.59-.66l-.05.32a.2.2,0,0,0,.2.23h1a.34.34,0,0,0,.33-.28l.62-3.94A.21.21,0,0,0,33.1,12.15Z"/><path class="cls-3" d="M34.46,10.1l-1,6.28a.2.2,0,0,0,.2.23h1a.33.33,0,0,0,.33-.28l1-6.17a.2.2,0,0,0-.2-.23H34.66A.2.2,0,0,0,34.46,10.1Z"/></svg>