<svg xmlns="http://www.w3.org/2000/svg" width="40" height="27.438" viewBox="0 0 40 27.438">
  <g id="ic-visa" transform="translate(-13.7 -25.1)">
    <g id="visa" transform="translate(13.7 25.1)">
      <path id="Tracé_24" data-name="Tracé 24" d="M51.441,52.538H15.959A2.234,2.234,0,0,1,13.7,50.279V27.359A2.234,2.234,0,0,1,15.959,25.1H51.331a2.215,2.215,0,0,1,2.314,2.259v22.81A2.187,2.187,0,0,1,51.441,52.538Z" transform="translate(-13.7 -25.1)" fill="#fcfcfc"/>
      <g id="Groupe_53" data-name="Groupe 53" transform="translate(3.416 8.815)">
        <path id="Tracé_25" data-name="Tracé 25" d="M40.5,50.877,42.043,41.4h2.645l-1.653,9.477Z" transform="translate(-29.15 -41.235)" fill="#005098"/>
        <path id="Tracé_26" data-name="Tracé 26" d="M55.869,41.486a6.745,6.745,0,0,0-2.314-.386c-2.534,0-4.408,1.267-4.408,3.141,0,1.377,1.267,2.149,2.259,2.534.992.5,1.377.771,1.377,1.157,0,.661-.771.992-1.543.992a5.04,5.04,0,0,1-2.424-.5l-.331-.22L48.1,50.356a7.981,7.981,0,0,0,2.92.5c2.755,0,4.463-1.267,4.463-3.2,0-1.047-.661-1.928-2.149-2.534-.882-.551-1.433-.826-1.433-1.212s.5-.771,1.488-.771a5.115,5.115,0,0,1,1.928.386l.22.11.331-2.149" transform="translate(-32.563 -41.1)" fill="#005098"/>
        <path id="Tracé_27" data-name="Tracé 27" d="M68.418,41.4H66.379A1.465,1.465,0,0,0,65,42.171l-3.8,8.65h2.755s.5-1.157.606-1.488h3.306a12.849,12.849,0,0,1,.275,1.488h2.424L68.418,41.4m-3.251,6.171c.22-.606,1.047-2.645,1.047-2.645a7.069,7.069,0,0,1,.386-.882l.22.771s.5,2.259.606,2.755Z" transform="translate(-38.445 -41.235)" fill="#005098"/>
        <path id="Tracé_28" data-name="Tracé 28" d="M31.236,41.355,28.7,47.8l-.22-1.267A7.649,7.649,0,0,0,24.9,42.512l2.314,8.265h2.755L34.046,41.3h-2.81" transform="translate(-22.145 -41.19)" fill="#005098"/>
        <path id="Tracé_29" data-name="Tracé 29" d="M24.087,41.4H19.9v.22a9.1,9.1,0,0,1,6.336,4.959l-.992-4.408c-.055-.551-.551-.771-1.157-.771" transform="translate(-19.9 -41.235)" fill="#f6a500"/>
      </g>
      <path id="Tracé_30" data-name="Tracé 30" d="M53.7,30.885h-40V27.359A2.234,2.234,0,0,1,15.959,25.1H51.331a2.215,2.215,0,0,1,2.314,2.259v3.526Z" transform="translate(-13.7 -25.1)" fill="#0a5296"/>
      <path id="Tracé_31" data-name="Tracé 31" d="M13.7,64.6H53.645v3.416a2.234,2.234,0,0,1-2.259,2.259H15.959A2.234,2.234,0,0,1,13.7,68.016V64.6Z" transform="translate(-13.7 -42.837)" fill="#f4a428"/>
    </g>
  </g>
</svg>
